<svg fill="#000000" xmlns="http://www.w3.org/2000/svg"  viewBox="0 0 30 30" width="100px" height="100px"><path d="M6.129,4.134C5.082,4.755,3.02,6.9,3,7.522V8.55C3,9.854,4.219,11,5.325,11c1.329,0,2.436-1.101,2.436-2.408	C7.761,9.899,8.83,11,10.159,11c1.329,0,2.364-1.101,2.364-2.408c0,1.307,1.137,2.408,2.466,2.408h0.024	c1.329,0,2.466-1.101,2.466-2.408c0,1.307,1.035,2.408,2.363,2.408c1.329,0,2.398-1.101,2.398-2.408	c0,1.307,1.107,2.408,2.436,2.408C25.781,11,27,9.854,27,8.55V7.522c-0.02-0.621-2.082-2.767-3.129-3.388	C20.617,4.019,18.362,4,15,4C11.638,4,7.055,4.053,6.129,4.134L6.129,4.134z"/><path d="M15,16.633L15,16.633c-0.001,0.002-1.625,1.493-1.916,2.023l1.063-0.043v0.927c0,0.043,0.427,0.026,0.853,0.006h0	c0.427,0.02,0.853,0.037,0.853-0.006v-0.927l1.063,0.043C16.625,18.125,15,16.633,15,16.633L15,16.633L15,16.633L15,16.633z"/><path d="M25.18,16.487c-0.002-0.45-0.004-0.773-0.006-1.167l0-0.004c-0.016-0.775-0.083-1.224-0.19-2.336	c-0.077,0.026-0.172,0.052-0.263,0.052c-0.729,0.001-1.43-0.284-1.951-0.794c-0.182-0.178-0.358-0.368-0.485-0.59l-0.001,0	c-0.127,0.222-0.265,0.412-0.446,0.59c-0.521,0.51-1.222,0.795-1.951,0.795c-0.758,0-1.445-0.304-1.947-0.795	c-0.183-0.178-0.34-0.381-0.468-0.602c-0.126,0.221-0.282,0.424-0.463,0.602c-0.521,0.51-1.222,0.795-1.951,0.795	c-0.026,0-0.053-0.001-0.079-0.002h-0.001c-0.026,0.001-0.053,0.002-0.08,0.002c-0.729,0.001-1.43-0.284-1.951-0.794	c-0.182-0.178-0.338-0.381-0.463-0.602l0,0c-0.127,0.221-0.284,0.424-0.468,0.602c-0.502,0.49-1.189,0.794-1.947,0.794	c-0.729,0.001-1.43-0.285-1.951-0.795c-0.182-0.178-0.32-0.368-0.446-0.59l-0.001,0c-0.126,0.222-0.302,0.412-0.485,0.591	c-0.521,0.51-1.222,0.795-1.951,0.794c-0.091,0-0.186-0.025-0.263-0.052c-0.107,1.112-0.13,1.561-0.146,2.336l0,0.004	c-0.002,0.394-0.004,0.717-0.006,1.167c0.021,2.334-0.231,7.564,1.029,8.849C7.802,25.791,11.395,25.999,15,26H15	c3.605-0.001,7.198-0.209,9.151-0.664C25.411,24.051,25.159,18.82,25.18,16.487z M21.194,23.645	c-1.822-0.068-2.831-1.391-2.831-2.714c-1.009,0.165-2.185,0.248-3.362,0.248h0c-1.177,0-2.354-0.083-3.362-0.248	c0,1.323-1.009,2.646-2.831,2.714c-1.229-0.002-2.214-0.068-1.468-2.755l1.007-3.612c0.937-2.633,2.282-2.633,2.619-2.633v0l0,0	c0,0,0,0,0,0l0,0.001h0.001c0.712,0.001,1.344,0,2.128,0.855c0.617-0.065,1.261-0.097,1.906-0.096H15	c0.645-0.001,1.289,0.031,1.906,0.096c0.784-0.855,1.416-0.854,2.128-0.855h0.001l0-0.001c0.336,0,1.682,0,2.619,2.633l1.007,3.612	C23.407,23.577,22.422,23.643,21.194,23.645z"/></svg>